<svg width="85" height="99" viewBox="0 0 85 99" fill="none" xmlns="http://www.w3.org/2000/svg">
    <path d="M0 98.177v-3.772h1.263c.53 0 .944.181 1.242.545.298.364.445.808.445 1.334 0 .53-.147.98-.435 1.348-.288.369-.656.55-1.1.55H0v-.005zm.47-.399h.767c.405 0 .713-.14.925-.419.212-.277.313-.646.313-1.106a1.78 1.78 0 0 0-.298-1.005c-.202-.298-.51-.444-.94-.444H.47v2.974zM8.35 98.177h-.48l-.38-1.1H6.091l-.338 1.1h-.399l1.227-3.772h.536l1.232 3.772zm-.96-1.454-.586-1.813-.581 1.813h1.166zM13.445 97.778v.4h-2.661v-.4l2.05-2.96H10.88v-.383h2.505v.313l-2.071 3.03h2.131zM18.652 97.778v.4h-2.661v-.4l2.05-2.96h-1.954v-.383h2.505v.313l-2.07 3.03h2.13zM23.744 97.763v.414h-2.227v-3.772h.485v3.353h1.742v.005zM27.022 98.177h-.475v-3.772h.475v3.772zM33.007 98.177h-.46l-1.95-3.288.006.248c.005.096.01.172.01.237v2.803h-.384v-3.772h.59l1.824 3.07-.005-.262c-.005-.101-.005-.192-.005-.273v-2.535h.374v3.772zM39.002 96.278v1.955h-.288l-.131-.475c-.232.334-.576.495-1.035.495-.5 0-.884-.187-1.162-.56-.278-.374-.414-.829-.414-1.364 0-.57.146-1.046.44-1.43.292-.383.691-.57 1.191-.57.692 0 1.147.364 1.359 1.096l-.45.106c-.065-.278-.187-.485-.363-.611a.977.977 0 0 0-.581-.192c-.374 0-.647.151-.823.45-.177.297-.263.676-.263 1.13 0 .49.1.87.298 1.147a.94.94 0 0 0 .808.414.91.91 0 0 0 .667-.262c.176-.177.267-.42.267-.728 0-.055 0-.126-.005-.207h-.934v-.394h1.42zM49.453 98.177h-.46v-3.293l-1.222 3.293h-.319l-1.237-3.293v3.293h-.404v-3.772h.697l1.142 3.015 1.11-3.015h.693v3.772zM53.958 98.253c-.485 0-.864-.187-1.132-.565-.272-.38-.404-.839-.404-1.384 0-.571.142-1.046.425-1.415.282-.373.656-.56 1.126-.56.465 0 .838.182 1.121.55.283.364.425.829.425 1.384 0 .536-.137 1-.41 1.4-.277.393-.661.59-1.151.59zm.01-.384c.328 0 .586-.151.773-.45.187-.297.278-.686.278-1.16 0-.486-.096-.865-.288-1.137a.892.892 0 0 0-.768-.404c-.323 0-.581.146-.768.44-.192.292-.283.676-.283 1.15 0 .465.096.84.288 1.132.192.288.45.43.768.43zM62.13 98.177h-.46v-3.293l-1.222 3.293h-.318l-1.238-3.293v3.293h-.399v-3.772h.697l1.137 3.015 1.11-3.015h.693v3.772zM67.772 97.763v.414h-2.44v-3.772h2.39v.414h-1.915v1.197h1.52v.384h-1.52v1.358h1.965v.005zM73.474 98.177h-.46l-1.949-3.288.005.248c.005.096.01.172.01.237v2.803h-.384v-3.772h.591l1.824 3.07-.005-.262c-.005-.101-.005-.192-.005-.273v-2.535h.373v3.772zM77.818 98.177h-.47V94.82h-1.08v-.414h2.636v.414h-1.081v3.358h-.005zM81.272 97.183l.425-.096c.171.515.54.772 1.11.772.299 0 .526-.065.673-.192a.632.632 0 0 0 .227-.51.485.485 0 0 0-.172-.389.966.966 0 0 0-.399-.202l-.752-.187a1.992 1.992 0 0 1-.48-.181.866.866 0 0 1-.318-.329.99.99 0 0 1-.132-.505c0-.313.122-.565.359-.752.237-.187.54-.283.914-.283.687 0 1.136.308 1.349.93l-.43.126a.755.755 0 0 0-.348-.5 1.114 1.114 0 0 0-.586-.172.979.979 0 0 0-.55.161.529.529 0 0 0-.243.465c0 .278.202.47.611.566l.707.166c.647.157.965.5.965 1.04 0 .33-.121.597-.364.814-.242.217-.58.323-1.025.323-.778.005-1.293-.348-1.54-1.066zM.136 41.826V2.733h19.522c10.763 0 19.521 8.813 19.521 19.576 0 10.764-8.758 19.522-19.521 19.522H.136v-.005zM60.347 0 85 41.77H35.694L60.347 0zM.096 48.735l19.522 14.779 19.52-14.779.112 40.543H.212L.096 48.735z" fill="#fff"/>
    <path d="M64.59 49.24c-11.193 0-20.264 9.072-20.264 20.264 0 11.193 9.07 20.264 20.264 20.264 11.192 0 20.263-9.071 20.263-20.264S75.777 49.24 64.59 49.24zm-.324 39.23c-2.98-9.895-9.101-16.193-18.774-19.057 9.748-2.934 15.83-9.202 19.012-18.885 3.111 9.698 9.328 15.915 19.188 18.648-14.693 7.086-13.511 7.753-19.426 19.294z" fill="#F79B5D"/>
</svg>
